<?xml version="1.0" encoding="utf-8"?>
<!-- Generator: Adobe Illustrator 19.2.1, SVG Export Plug-In . SVG Version: 6.00 Build 0)  -->
<svg version="1.1" id="Layer_1" xmlns="http://www.w3.org/2000/svg" xmlns:xlink="http://www.w3.org/1999/xlink" x="0px" y="0px"
	 viewBox="0 0 352.7 289.6" style="enable-background:new 0 0 352.7 289.6;" xml:space="preserve">
<style type="text/css">
	.st0{fill:#FFFFFF;}
</style>
<g>
	
		<image style="overflow:visible;opacity:0.4;" width="339" height="286" xlink:href="8D380308C7677AC8.png"  transform="matrix(1 0 0 1 6.0127 2.0723)">
	</image>
	<g>
		<g>
			<path class="st0" d="M228.6,117.4c0,0-78.4-6.1-112.7,39.9c-26.9,36.1-3.5,65.4,7.9,76.4c3.8-7.2,11.2-20.3,21.5-35.2
				c2.9-16.1-4.1-45.2-4.1-45.2c11.4,13.9,11.5,28.3,10.3,36.5c16.8-22.8,39.8-48.1,67.3-63.4c0,0-20.3,16.8-41.7,40.9
				c7.3-1.9,24.4-5.2,38.6,0.8c0,0-32.9,2.4-46.6,8.5c-15.6,18.9-30.4,41.2-36.9,63.2c28.1,12.1,61.8,13.5,88.1-23.2
				C247.6,178.3,228.6,117.4,228.6,117.4z"/>
			<path class="st0" d="M337.5,63.5c-1.1-15.2-6.6-33.8-6.6-33.8c0-2.7-8-2.7-8,0l-4.8,33.4h-2.7l-6.6-33.4c0-2.7-8-2.7-8,0
				l-6.1,33.4h-1h-1l-6.1-33.4c0-2.7-8-2.7-8,0l-6.6,33.4h-2.7l-3.5-33.4c0-2.7-8-2.7-8,0c0,0-6.9,18.6-8,33.8
				c-1.1,15.2-1.8,54.2,31.6,57.5c-0.5,72.9-4.2,93.4-4.2,122.8c0,37.1,8.1,36.9,16.4,36.9c8.3,0,16.4,0.2,16.4-36.9
				c0-29.4-3.7-49.9-4.2-122.8C339.3,117.7,338.6,78.8,337.5,63.5z"/>
			<path class="st0" d="M103.5,80.6c0-32.7-14.1-72.7-45.8-72.7c-31.7,0-45.8,40-45.8,72.7c0,29.8,11.8,43.2,37.9,45.3
				c-7.3,69.8-7.1,88.9-7.1,118c0,37.2,6.8,36.9,15.1,36.9c8.3,0,15.1,0.2,15.1-36.9c0-29.1,0.2-48.1-7.1-118
				C91.7,123.8,103.5,110.4,103.5,80.6z"/>
		</g>
	</g>
</g>
</svg>
